HIERARCHY
ROOT SpineBase
{
  OFFSET 0.000000 0.000000 0.000000
  CHANNELS 6 Xposition Yposition Zposition Zrotation Xrotation Yrotation
  JOINT SpineMid
  {
    OFFSET 0.000000 30.150995 0.000000
    CHANNELS 3 Zrotation Xrotation Yrotation
    JOINT SpineShoulder
    {
      OFFSET -0.103223 22.312809 -0.838680
      CHANNELS 3 Zrotation Xrotation Yrotation
      JOINT Neck
      {
        OFFSET -0.068285 7.368836 -0.623068
        CHANNELS 3 Zrotation Xrotation Yrotation
        JOINT Head
        {
          OFFSET -0.584750 11.810808 1.653004
          CHANNELS 3 Zrotation Xrotation Yrotation
          End Site
          {
            OFFSET 0 0 0
          }
        }
      }
      JOINT ShoulderLeft
      {
        OFFSET -9.010750 -5.595086 9.060247
        CHANNELS 3 Zrotation Xrotation Yrotation
        JOINT ElbowLeft
        {
          OFFSET -1.695563 -29.556325 8.933512
          CHANNELS 3 Zrotation Xrotation Yrotation
          JOINT WristLeft
          {
            OFFSET 0.476685 -22.730179 -5.302701
            CHANNELS 3 Zrotation Xrotation Yrotation
            JOINT HandLeft
            {
              OFFSET 0.427852 -5.353400 -1.900577
              CHANNELS 3 Zrotation Xrotation Yrotation
              JOINT HandTipLeft
              {
                OFFSET -0.909378 -4.520199 0.400345
                CHANNELS 3 Zrotation Xrotation Yrotation
                End Site
                {
                  OFFSET 0 0 0
                }
              }
              JOINT ThumbLeft
              {
                OFFSET 0.324957 2.310378 -3.634752
                CHANNELS 3 Zrotation Xrotation Yrotation
                End Site
                {
                  OFFSET 0 0 0
                }
              }
            }
          }
        }
      }
      JOINT ShoulderRight
      {
        OFFSET 2.826493 -4.529846 -13.844843
        CHANNELS 3 Zrotation Xrotation Yrotation
        JOINT ElbowRight
        {
          OFFSET 4.004725 -23.028390 -4.098337
          CHANNELS 3 Zrotation Xrotation Yrotation
          JOINT WristRight
          {
            OFFSET -6.323645 -22.470439 -2.097891
            CHANNELS 3 Zrotation Xrotation Yrotation
            JOINT HandRight
            {
              OFFSET -0.042835 -5.763141 2.689275
              CHANNELS 3 Zrotation Xrotation Yrotation
              JOINT HandTipRight
              {
                OFFSET -2.850980 -7.287143 1.622056
                CHANNELS 3 Zrotation Xrotation Yrotation
                End Site
                {
                  OFFSET 0 0 0
                }
              }
              JOINT ThumbRight
              {
                OFFSET -4.824474 2.265639 2.911629
                CHANNELS 3 Zrotation Xrotation Yrotation
                End Site
                {
                  OFFSET 0 0 0
                }
              }
            }
          }
        }
      }
    }
  }
  JOINT HipLeft
  {
    OFFSET -4.040440 0.373960 1.079352
    CHANNELS 3 Zrotation Xrotation Yrotation
    JOINT KneeLeft
    {
      OFFSET 0.764671 -21.247975 10.211806
      CHANNELS 3 Zrotation Xrotation Yrotation
      JOINT AnkleLeft
      {
        OFFSET 13.534204 -38.193032 5.342630
        CHANNELS 3 Zrotation Xrotation Yrotation
        JOINT FootLeft
        {
          OFFSET -2.794294 -5.625427 -3.128075
          CHANNELS 3 Zrotation Xrotation Yrotation
          End Site
          {
            OFFSET 0 0 0
          }
        }
      }
    }
  }
  JOINT HipRight
  {
    OFFSET 3.097237 1.067772 -7.922042
    CHANNELS 3 Zrotation Xrotation Yrotation
    JOINT KneeRight
    {
      OFFSET 6.775240 -26.448737 3.296481
      CHANNELS 3 Zrotation Xrotation Yrotation
      JOINT AnkleRight
      {
        OFFSET 8.200402 -31.330607 5.377018
        CHANNELS 3 Zrotation Xrotation Yrotation
        JOINT FootRight
        {
          OFFSET -4.185369 -6.154453 3.509692
          CHANNELS 3 Zrotation Xrotation Yrotation
          End Site
          {
            OFFSET 0 0 0
          }
        }
      }
    }
  }
}
MOTION
Frames: 10
Frame Time: 0.033333
51.976517 65.389412 335.094265 -0.000000 0.000000 51.587256 -0.000000 0.000000 -51.587256 -0.000000 0.000000 0.000000 -0.000000 0.000000 0.000000 0.000000 0.000000 0.000000 -0.000000 0.000000 0.000000 -0.000000 0.000000 0.000000 -0.000000 0.000000 0.000000 -0.000000 0.000000 0.000000 0.000000 0.000000 0.000000 0.000000 0.000000 0.000000 -0.000000 0.000000 0.000000 -0.000000 0.000000 0.000000 -0.000000 0.000000 0.000000 -0.000000 0.000000 0.000000 0.000000 0.000000 0.000000 0.000000 0.000000 0.000000 -0.000000 0.000000 -51.587256 -0.000000 0.000000 0.000000 -0.000000 0.000000 0.000000 0.000000 0.000000 0.000000 -0.000000 0.000000 -51.587256 -0.000000 0.000000 0.000000 -0.000000 0.000000 0.000000 0.000000 0.000000 0.000000
52.082316 65.433791 334.925528 0.092072 0.109994 52.123184 -0.143351 0.005143 -52.123266 -0.000000 0.000000 0.000000 -0.000000 0.000000 0.000000 0.000000 0.000000 0.000000 -0.000000 0.000000 0.000000 -0.000000 0.000000 0.000000 -2.599357 1.539587 1.077755 1.670211 -5.894144 -0.272443 0.000000 0.000000 0.000000 0.000000 0.000000 0.000000 -0.000000 0.000000 0.000000 1.314634 -0.372039 -0.013823 -0.246163 1.239961 0.501376 4.742615 -2.210241 1.495750 0.000000 0.000000 0.000000 0.000000 0.000000 0.000000 -1.890334 0.698585 -52.922631 1.606495 0.975747 0.796414 0.777944 -3.076978 1.137880 0.000000 0.000000 0.000000 -0.143351 0.005143 -52.123266 -0.000000 0.000000 0.000000 0.989488 10.963767 -7.451145 0.000000 0.000000 0.000000
52.173335 65.470753 334.799223 0.171685 0.175679 52.603365 -0.243837 0.029701 -52.603565 -0.000000 0.000000 0.000000 -0.000000 0.000000 0.000000 0.000000 0.000000 0.000000 -0.000000 0.000000 0.000000 -0.000000 0.000000 0.000000 -4.671888 2.551771 1.958338 2.925514 -10.352894 -0.520486 0.000000 0.000000 0.000000 0.000000 0.000000 0.000000 -0.000000 0.000000 0.000000 2.246138 -0.652807 -0.013299 -0.542993 2.164974 0.785683 7.927257 -3.504480 2.602979 0.000000 0.000000 0.000000 0.000000 0.000000 0.000000 -3.228115 1.267490 -53.963824 3.828372 1.475047 1.389517 0.557996 -5.403929 1.976338 0.000000 0.000000 0.000000 -0.243837 0.029701 -52.603565 -0.000000 0.000000 0.000000 2.810098 19.584497 -13.868001 0.000000 0.000000 0.000000
52.249575 65.500297 334.715350 0.238721 0.196816 53.023090 -0.300820 0.072326 -53.023310 -0.000000 0.000000 0.000000 -0.000000 0.000000 0.000000 0.000000 0.000000 0.000000 -0.000000 0.000000 0.000000 -0.000000 0.000000 0.000000 -6.241240 3.100098 2.620637 3.871557 -13.399920 -0.736386 0.000000 0.000000 0.000000 0.000000 0.000000 0.000000 -0.000000 0.000000 0.000000 2.797872 -0.842958 -0.003478 -0.813644 2.824610 0.899939 9.880258 -4.108745 3.261230 0.000000 0.000000 0.000000 0.000000 0.000000 0.000000 -3.945640 1.639509 -54.683416 4.759806 1.894647 1.721296 1.151611 -7.501031 2.605559 0.000000 0.000000 0.000000 0.434153 0.558887 -52.795135 -0.056914 -0.879585 -0.232660 4.631858 25.384688 -18.730421 0.000000 0.000000 0.000000
52.311036 65.522425 334.673908 0.293082 0.173242 53.378606 -0.313873 0.131883 -53.378688 -0.000000 0.000000 0.000000 -0.000000 0.000000 0.000000 0.000000 0.000000 0.000000 -0.000000 0.000000 0.000000 -0.000000 0.000000 0.000000 -7.341077 3.242077 3.061243 4.599944 -15.061339 -0.913071 0.000000 0.000000 0.000000 0.000000 0.000000 0.000000 -0.000000 0.000000 0.000000 2.971917 -0.943138 0.012464 -1.024119 3.250019 0.865257 10.782393 -4.131871 3.453114 0.000000 0.000000 0.000000 0.000000 0.000000 0.000000 -4.009593 1.770242 -55.068427 4.984941 2.038010 1.810178 1.924867 -9.232389 2.999102 0.000000 0.000000 0.000000 0.664212 0.768937 -53.078611 -0.078341 -1.164596 -0.308562 5.797581 28.619426 -21.743385 0.000000 0.000000 0.000000
52.357717 65.537134 334.674898 0.334691 0.104870 53.667199 -0.282778 0.207491 -53.666993 -0.000000 0.000000 0.000000 0.819556 0.255020 -0.103833 0.000000 0.000000 0.000000 -0.000000 0.000000 0.000000 -0.000000 0.000000 0.000000 -8.009014 3.025629 3.288409 5.189772 -15.333773 -1.054927 0.000000 0.000000 0.000000 0.000000 0.000000 0.000000 -0.000000 0.000000 0.000000 2.768371 -0.953675 0.033174 -1.172249 3.459050 0.684414 10.666886 -3.579519 3.151303 0.000000 0.000000 0.000000 0.000000 0.000000 0.000000 -3.422812 1.644464 -55.118387 4.503262 1.902929 1.659912 2.870396 -10.626411 3.156582 0.000000 0.000000 0.000000 0.939277 0.992402 -53.296533 -0.101269 -1.448815 -0.384537 5.934637 29.621000 -22.777399 0.000000 0.000000 0.000000
52.373110 65.538868 334.772193 0.331303 -0.100592 53.894354 -0.113960 0.326946 -53.893738 -0.000000 0.000000 0.000000 1.005413 0.425831 -0.123254 0.000000 0.000000 0.000000 -0.000000 0.000000 0.000000 -0.000000 0.000000 0.000000 -9.021306 4.902997 3.951790 5.364938 -17.056239 -1.683711 0.000000 0.000000 0.000000 0.000000 0.000000 0.000000 -0.874930 0.203568 0.192864 4.748984 -1.108902 -0.257743 -2.127192 3.248795 0.888910 9.147700 -1.526792 1.679818 0.000000 0.000000 0.000000 0.000000 0.000000 0.000000 -1.213349 0.780058 -54.391628 2.210342 1.406364 0.920852 5.862120 -12.929006 2.743059 0.000000 0.000000 0.000000 1.531433 1.290604 -53.406355 -0.243650 -2.720177 -0.736122 3.617571 27.182523 -19.736906 0.000000 0.000000 0.000000
52.205688 65.501712 335.108582 0.132638 -0.589455 53.903308 0.398156 0.454450 -53.904205 -0.000000 0.000000 0.000000 1.026279 0.601627 -0.119100 0.000000 0.000000 0.000000 -0.000000 0.000000 0.000000 -0.000000 0.000000 0.000000 -8.176726 -0.617384 2.835433 7.030835 -7.067633 -1.568878 0.000000 0.000000 0.000000 0.000000 0.000000 0.000000 -0.000000 0.000000 0.000000 3.577571 -0.642095 -0.134619 -1.882493 1.526256 0.931663 4.429979 1.612833 -0.476404 0.000000 0.000000 0.000000 0.000000 0.000000 0.000000 2.452677 0.080181 -53.130562 -0.610936 -0.162518 -0.214067 11.377430 -19.678739 4.661062 0.000000 0.000000 0.000000 3.039625 1.573079 -53.152844 -0.887392 -3.849981 -1.136781 3.372230 16.835399 -10.101551 0.000000 0.000000 0.000000
52.314030 65.493948 335.077033 0.310460 -0.556501 53.980118 0.267537 0.578362 -53.979961 -0.000000 0.000000 0.000000 1.016434 0.959260 -0.103110 0.000000 0.000000 0.000000 -0.000000 0.000000 0.000000 -0.000000 0.000000 0.000000 -6.858751 -3.203472 2.019322 7.004467 -0.236386 -1.740475 0.000000 0.000000 0.000000 0.000000 0.000000 0.000000 -0.000000 0.000000 0.000000 1.470461 -0.526750 0.017778 -2.131182 1.621868 -0.309711 -0.250689 3.214868 -1.555000 0.000000 0.000000 0.000000 0.000000 0.000000 0.000000 3.090776 -0.005617 -52.891052 -1.393839 -0.479833 -0.510523 12.066409 -16.938286 2.286700 0.000000 0.000000 0.000000 2.511773 1.612175 -53.340894 -0.882978 -3.515415 -1.061693 4.119372 10.237128 -4.376642 0.000000 0.000000 0.000000
52.567906 65.511140 334.823358 0.647069 -0.200427 54.315170 -0.214674 0.642483 -54.312835 -0.000000 0.000000 0.000000 1.068424 1.224655 -0.100126 0.000000 0.000000 0.000000 -0.000000 0.000000 0.000000 -0.000000 0.000000 0.000000 -6.030896 -6.235449 1.347108 8.494594 5.121795 -1.850635 0.000000 0.000000 0.000000 0.000000 0.000000 0.000000 1.542132 0.654832 -0.168835 -5.143695 -0.509946 0.403933 -1.587957 3.178161 -2.634801 -5.301738 4.667637 -2.648820 0.000000 0.000000 0.000000 0.000000 0.000000 0.000000 1.434496 0.456635 -53.746704 -0.383103 0.034360 -0.037518 8.069125 -10.916771 0.270183 0.000000 0.000000 0.000000 1.310512 1.975063 -53.854067 -0.143039 -3.414524 -0.924091 -4.780822 19.589478 -14.818181 0.000000 0.000000 0.000000
